<svg id="Capa_1" data-name="Capa 1" xmlns="http://www.w3.org/2000/svg" viewBox="0 0 315.61 252.44"><defs><style>.cls-1{fill:#fff;}.cls-2{fill:#a59fce;}.cls-3{fill:#1c3560;}.cls-4{isolation:isolate;}</style></defs><g id="Grupo_18" data-name="Grupo 18"><g id="Grupo_17" data-name="Grupo 17"><path id="Trazado_9" data-name="Trazado 9" class="cls-1" d="M155.06,55.39c-18.81,0-37.62,0-56.42,0a3.65,3.65,0,0,0-3.91,3.34,4.21,4.21,0,0,0,0,.5c0,5.95-.12,11.9-.06,17.83.13,12.53,0,25.06.1,37.58,0,5.8,0,11.6,0,17.39,0,2.8,1.24,4,4.1,4h36.67c1.75,0,1.8.16,1.49,1.85a34.9,34.9,0,0,0-.5,4.78c0,.76-.23,1-1,1-13,0-25.92,0-38.88,0-3.26,0-7.68-3.51-8.86-6.69a16.29,16.29,0,0,1-1-5.74c0-24.13,0-48.26,0-72.39A11.22,11.22,0,0,1,98.08,47.51c7.37-.12,14.75-.06,22.12,0,1.17,0,1.5-.25,1.47-1.45-.09-3.11-.07-6.22,0-9.33a9.93,9.93,0,0,1,9.84-9.79c15.7,0,31.4,0,47.1,0a10,10,0,0,1,9.75,7.91,56.56,56.56,0,0,1,.26,10.65c0,1.62.37,2.06,2,2,7.05-.11,14.12,0,21.17,0a11.47,11.47,0,0,1,11.07,8.13,12.55,12.55,0,0,1,.55,3.34c0,24.6.09,49.2-.06,73.8a10.71,10.71,0,0,1-10.61,10.8h-.16c-12.38.1-24.76,0-37.14.06-1.18,0-1.66-.1-1.75-1.53a18.6,18.6,0,0,0-.5-4.46c-.3-1-.18-1.68,1.32-1.67,12.23.08,24.45,0,36.67,0,3.07,0,4.33-1.25,4.33-4.32V59.29c0-2.68-1.22-3.9-3.89-3.9ZM131.69,34.6c-1.07.36-2.18.64-2.16,2.16q.06,4.91,0,9.79c0,.77.24,1,1,1q24.62,0,49.24,0c.86,0,1-.28,1-1.07,0-2.78,0-5.57,0-8.36,0-2.62.12-3.35-1.94-3.48-.16,0-.84-.06-1-.06-10.84,0-43.13.07-46.13.06Z"/><path id="Trazado_10" data-name="Trazado 10" class="cls-2" d="M171.32,58c-2.84,3.28-5.55,6.46-8.32,9.58a2,2,0,0,0-.52,1.71q.47,4.88,1,9.73c.31,3.15.61,6.31.95,9.46.25,2.39.55,4.78.86,7.18a1.14,1.14,0,0,1-.61,1.35c-3,1.78-5.9,3.74-8.93,5.5s-6,3.78-9,5.75c-.9.6-2.06.74-2.79,2a16.88,16.88,0,0,1,.27-5.67c.31-2.62.49-5.26.82-7.88.5-3.91.92-7.83,1.21-11.76.19-2.4.44-4.75.71-7.13.31-2.83.58-5.66.89-8.49a1.72,1.72,0,0,0-.46-1.42c-2.44-2.81-4.84-5.65-7.25-8.49-.37-.43-.65-.91-1.05-1.46Z"/><path id="Trazado_11" data-name="Trazado 11" class="cls-3" d="M165.87,100.57c.54,5.29,1.07,10.47,1.6,15.64a1.5,1.5,0,0,1-.84,1.64c-5.48,3.3-10.91,6.66-16.35,10-2.64,1.63-5.24,3.31-7.86,5l-1.24.71c.25-2.84.46-5.47.72-8.09.29-3,.75-5.92.86-8.89a3.19,3.19,0,0,1,1.77-3c5.79-3.32,11.28-7.14,17.12-10.4C163.06,102.39,164.32,101.31,165.87,100.57Z"/><path id="Trazado_12" data-name="Trazado 12" class="cls-2" d="M140.48,139.13l27.83-17.24,3,30.73L155,168.92,139,152.8Z"/></g><path id="Trazado_13" data-name="Trazado 13" class="cls-1" d="M99.61,60.51v70.86h37L144.56,70l-7.93-9.49Z"/><path id="Trazado_14" data-name="Trazado 14" class="cls-1" d="M166,71.08l10.6-10.43H211v69.63H174.38Z"/></g><g id="NEXUSJOB" class="cls-4"><g class="cls-4"><path class="cls-1" d="M53.82,188.75v36.06H47.64L33.73,205.23v19.58H25.49V188.75h6.18l13.91,19.57V188.75Z"/><path class="cls-1" d="M84.22,216.87v7.94H61.55V188.75H84v7.93H69.79v6H82.67v7.83H69.79v6.39Z"/><path class="cls-1" d="M109.36,224.81l-6.08-10.41L97.2,224.81H87.82l10.77-18.5L88.34,188.75h9.37l5.57,9.53,5.56-9.53h9.38L108,206.31l10.76,18.5Z"/><path class="cls-1" d="M123.11,213.16V188.75h8.24v23.69c0,2.73,1.29,5.05,5.67,5.05s5.67-2.32,5.67-5.05V188.75h8.24v24.41c0,7.73-6,12.37-13.91,12.37S123.11,220.89,123.11,213.16Z"/><path class="cls-1" d="M156.6,216.62l7.11-4.13a7.54,7.54,0,0,0,7.57,5c3.91,0,4.89-1.54,4.89-2.94,0-2.21-2.06-3.09-7.47-4.58s-10.61-4.07-10.61-11,5.87-11,12.11-11a14,14,0,0,1,13.18,8.14l-6.95,4.07c-1.24-2.57-2.94-4.17-6.23-4.17-2.58,0-3.87,1.29-3.87,2.73,0,1.65.88,2.78,6.49,4.48s11.59,3.56,11.59,11.18c0,7-5.56,11.08-13.39,11.08C163.45,225.53,158.61,221.92,156.6,216.62Z"/></g><g class="cls-4"><path class="cls-2" d="M188.53,218.52l7.17-4.12c1.13,2,2.31,3.09,5.1,3.09,3.6,0,4.68-2.06,4.68-4.27V188.75h8.25v24.47c0,7.93-5.57,12.31-13,12.31C195,225.53,190.9,223.11,188.53,218.52Z"/><path class="cls-2" d="M219.65,206.78a18.75,18.75,0,1,1,18.75,18.75A18.59,18.59,0,0,1,219.65,206.78Zm29.26,0a10.51,10.51,0,1,0-10.51,10.71A10.26,10.26,0,0,0,248.91,206.78Z"/><path class="cls-2" d="M290.12,214.25c0,6.38-5.2,10.56-11.64,10.56H263.34V188.75h14.11c6.29,0,11.38,4.07,11.38,10.3a9,9,0,0,1-3.14,7.06A9.31,9.31,0,0,1,290.12,214.25Zm-18.54-17.78v6.39h5.87a3.2,3.2,0,0,0,0-6.39Zm10.3,17.16a3.26,3.26,0,0,0-3.4-3.45h-6.9v6.9h6.9A3.26,3.26,0,0,0,281.88,213.63Z"/></g></g></svg>