<?xml version="1.0" encoding="utf-8"?>
<!-- Generator: Adobe Illustrator 24.2.3, SVG Export Plug-In . SVG Version: 6.00 Build 0)  -->
<svg version="1.1" id="Capa_1" xmlns="http://www.w3.org/2000/svg" xmlns:xlink="http://www.w3.org/1999/xlink" x="0px" y="0px"
	 viewBox="0 0 69.5 71.3" style="enable-background:new 0 0 69.5 71.3;" xml:space="preserve">
<style type="text/css">
	.st0{fill:#1C3560;}
</style>
<path class="st0" d="M68.7,43.4l-9.6-9.6c-0.9-0.9-2.3-1-3.4-0.4l-3.8-18.9c-0.2-1.1-1-1.9-2.1-2.2L3.5,1.2c-0.2,0-0.4-0.1-0.6-0.1
	H2.8c-0.3,0-0.6,0.1-0.9,0.2L1.7,1.4C1.4,1.6,1.1,1.7,0.8,2C0.6,2.2,0.4,2.5,0.3,2.8L0.2,3C0.1,3.3,0,3.6,0,4C0,4,0,4,0,4.1
	c0,0.2,0,0.4,0.1,0.6l11.2,46.2c0.3,1.1,1.1,1.9,2.2,2.1l18.9,3.8c-0.7,1.1-0.5,2.5,0.4,3.5l9.6,9.6c1.1,1.1,2.9,1.1,4,0l22.3-22.4
	C69.8,46.3,69.8,44.5,68.7,43.4C68.7,43.4,68.7,43.4,68.7,43.4z M8,13.1l15.5,15.4c-0.7,1.3-1,2.7-1,4.2c0,5.1,4.1,9.2,9.2,9.2
	s9.2-4.1,9.2-9.2s-4.1-9.2-9.2-9.2c-1.5,0-2.9,0.3-4.2,1L12,9.1l34.7,8.4l4.1,20.7L37,51.9l-20.7-4.1L8,13.1z M29.1,30.2L29.1,30.2
	c0.7-0.6,1.6-1,2.5-1c2,0,3.5,1.6,3.5,3.6s-1.6,3.5-3.6,3.5s-3.5-1.6-3.5-3.6C28,31.7,28.3,30.8,29.1,30.2L29.1,30.2z M44.3,63.7
	l-5.6-5.5l18.3-18.4l5.6,5.6L44.3,63.7z"/>
</svg>
