<?xml version="1.0" encoding="utf-8"?>
<!-- Generator: Adobe Illustrator 24.2.3, SVG Export Plug-In . SVG Version: 6.00 Build 0)  -->
<svg version="1.1" id="Capa_1" xmlns="http://www.w3.org/2000/svg" xmlns:xlink="http://www.w3.org/1999/xlink" x="0px" y="0px"
	 viewBox="0 0 66 66" style="enable-background:new 0 0 66 66;" xml:space="preserve">
<style type="text/css">
	.st0{fill:#1C3560;}
</style>
<g id="Circle_Button_">
	<path id="Icon_awesome-linkedin" class="st0" d="M61.3,0H4.7C2.1,0,0,2.1,0,4.8v56.4c0,2.6,2.1,4.7,4.7,4.8h56.5
		c2.6,0,4.7-2.1,4.7-4.8V4.8C66,2.1,63.9,0,61.3,0z M19.9,56.5h-9.8V25.1H20L19.9,56.5L19.9,56.5z M15.1,20.8
		c-3.1,0-5.7-2.5-5.7-5.7c0-3.1,2.5-5.7,5.7-5.7c3.1,0,5.7,2.5,5.7,5.7c0,0,0,0,0,0C20.7,18.2,18.2,20.8,15.1,20.8z M56.6,56.5h-9.8
		V41.2c0-3.7-0.1-8.3-5.1-8.3s-5.9,4-5.9,8.1v15.6h-9.8V25.1h9.4v4.3h0.1c1.9-3.3,5.5-5.2,9.3-5.1c9.9,0,11.7,6.5,11.7,15V56.5z"/>
</g>
</svg>
