<?xml version="1.0" encoding="utf-8"?>
<!-- Generator: Adobe Illustrator 24.2.3, SVG Export Plug-In . SVG Version: 6.00 Build 0)  -->
<svg version="1.1" id="Capa_1" xmlns="http://www.w3.org/2000/svg" xmlns:xlink="http://www.w3.org/1999/xlink" x="0px" y="0px"
	 viewBox="0 0 315.6 252.4" style="enable-background:new 0 0 315.6 252.4;" xml:space="preserve">
<style type="text/css">
	.st0{fill:#1C3560;}
	.st1{fill:#483EE8;}
	.st2{fill:#A59FCE;}
</style>
<g id="Grupo_18">
	<g id="Grupo_17">
		<path id="Trazado_9" class="st0" d="M155.1,55.4c-18.8,0-37.6,0-56.4,0c-2-0.1-3.7,1.3-3.9,3.3c0,0.2,0,0.3,0,0.5
			c0,6-0.1,11.9-0.1,17.8c0.1,12.5,0,25.1,0.1,37.6c0,5.8,0,11.6,0,17.4c0,2.8,1.2,4,4.1,4h36.7c1.8,0,1.8,0.2,1.5,1.9
			c-0.3,1.6-0.4,3.2-0.5,4.8c0,0.8-0.2,1-1,1c-13,0-25.9,0-38.9,0c-3.3,0-7.7-3.5-8.9-6.7c-0.7-1.8-1-3.8-1-5.7
			c0-24.1,0-48.3,0-72.4c-0.1-6.2,4.9-11.3,11.1-11.3c0.1,0,0.1,0,0.2,0c7.4-0.1,14.8-0.1,22.1,0c1.2,0,1.5-0.3,1.5-1.5
			c-0.1-3.1-0.1-6.2,0-9.3c0.1-5.4,4.4-9.7,9.8-9.8c15.7,0,31.4,0,47.1,0c4.7,0,8.8,3.3,9.8,7.9c0.4,3.5,0.5,7.1,0.3,10.6
			c0,1.6,0.4,2.1,2,2c7.1-0.1,14.1,0,21.2,0c5.1,0,9.6,3.3,11.1,8.1c0.3,1.1,0.5,2.2,0.6,3.3c0,24.6,0.1,49.2-0.1,73.8
			c0,5.9-4.7,10.7-10.6,10.8h-0.2c-12.4,0.1-24.8,0-37.1,0.1c-1.2,0-1.7-0.1-1.8-1.5c0-1.5-0.2-3-0.5-4.5c-0.3-1-0.2-1.7,1.3-1.7
			c12.2,0.1,24.4,0,36.7,0c3.1,0,4.3-1.3,4.3-4.3V59.3c0-2.7-1.2-3.9-3.9-3.9H155.1z M131.7,34.6c-1.1,0.4-2.2,0.6-2.2,2.2
			c0,3.3,0,6.5,0,9.8c0,0.8,0.2,1,1,1c16.4,0,32.8,0,49.2,0c0.9,0,1-0.3,1-1.1c0-2.8,0-5.6,0-8.4c0-2.6,0.1-3.3-1.9-3.5
			c-0.2,0-0.8-0.1-1-0.1C167,34.6,134.7,34.6,131.7,34.6L131.7,34.6z"/>
		<path id="Trazado_10" class="st1" d="M171.3,58c-2.8,3.3-5.6,6.5-8.3,9.6c-0.4,0.5-0.6,1.1-0.5,1.7c0.3,3.3,0.6,6.5,1,9.7
			c0.3,3.2,0.6,6.3,0.9,9.5c0.3,2.4,0.6,4.8,0.9,7.2c0.2,0.5-0.1,1.1-0.6,1.3c-3,1.8-5.9,3.7-8.9,5.5s-6,3.8-9,5.8
			c-0.9,0.6-2.1,0.7-2.8,2c-0.2-1.9-0.1-3.8,0.3-5.7c0.3-2.6,0.5-5.3,0.8-7.9c0.5-3.9,0.9-7.8,1.2-11.8c0.2-2.4,0.4-4.8,0.7-7.1
			c0.3-2.8,0.6-5.7,0.9-8.5c0.1-0.5-0.1-1-0.5-1.4c-2.4-2.8-4.8-5.7-7.3-8.5c-0.4-0.4-0.6-0.9-1.1-1.5L171.3,58z"/>
		<path id="Trazado_11" class="st0" d="M165.9,100.6c0.5,5.3,1.1,10.5,1.6,15.6c0.1,0.7-0.2,1.3-0.8,1.6c-5.5,3.3-10.9,6.7-16.4,10
			c-2.6,1.6-5.2,3.3-7.9,5l-1.2,0.7c0.3-2.8,0.5-5.5,0.7-8.1c0.3-3,0.8-5.9,0.9-8.9c-0.1-1.3,0.6-2.4,1.8-3
			c5.8-3.3,11.3-7.1,17.1-10.4C163.1,102.4,164.3,101.3,165.9,100.6z"/>
		<path id="Trazado_12" class="st1" d="M140.5,139.1l27.8-17.2l3,30.7L155,168.9l-16-16.1L140.5,139.1z"/>
	</g>
	<path id="Trazado_13" class="st2" d="M99.6,60.5v70.9h37l7.9-61.4l-7.9-9.5L99.6,60.5z"/>
	<path id="Trazado_14" class="st2" d="M166,71.1l10.6-10.4H211v69.6h-36.6L166,71.1z"/>
</g>
<g id="NEXUSJOB">
	<g>
		<path class="st0" d="M53.8,188.8v36.1h-6.2l-13.9-19.6v19.6h-8.2v-36.1h6.2l13.9,19.6v-19.6H53.8z"/>
		<path class="st0" d="M84.2,216.9v7.9H61.5v-36.1H84v7.9H69.8v6h12.9v7.8H69.8v6.4L84.2,216.9z"/>
		<path class="st0" d="M109.4,224.8l-6.1-10.4l-6.1,10.4h-9.4l10.8-18.5l-10.3-17.6h9.4l5.6,9.5l5.6-9.5h9.4L108,206.3l10.8,18.5
			H109.4z"/>
		<path class="st0" d="M123.1,213.2v-24.4h8.2v23.7c0,2.7,1.3,5.1,5.7,5.1s5.7-2.3,5.7-5.1v-23.7h8.2v24.4c0,7.7-6,12.4-13.9,12.4
			S123.1,220.9,123.1,213.2z"/>
		<path class="st0" d="M156.6,216.6l7.1-4.1c1.1,3.2,4.2,5.2,7.6,5c3.9,0,4.9-1.5,4.9-2.9c0-2.2-2.1-3.1-7.5-4.6s-10.6-4.1-10.6-11
			s5.9-11,12.1-11c5.6-0.2,10.8,3,13.2,8.1l-6.9,4.1c-1.2-2.6-2.9-4.2-6.2-4.2c-2.6,0-3.9,1.3-3.9,2.7c0,1.6,0.9,2.8,6.5,4.5
			s11.6,3.6,11.6,11.2c0,7-5.6,11.1-13.4,11.1C163.4,225.5,158.6,221.9,156.6,216.6z"/>
	</g>
	<g>
		<path class="st2" d="M188.5,218.5l7.2-4.1c1.1,2,2.3,3.1,5.1,3.1c3.6,0,4.7-2.1,4.7-4.3v-24.5h8.3v24.5c0,7.9-5.6,12.3-13,12.3
			C195,225.5,190.9,223.1,188.5,218.5z"/>
		<path class="st2" d="M219.6,206.8c0-10.4,8.4-18.8,18.8-18.8s18.8,8.4,18.8,18.8s-8.4,18.8-18.8,18.8
			c-10.3,0.1-18.7-8.2-18.8-18.4C219.6,207,219.6,206.9,219.6,206.8z M248.9,206.8c-0.1-5.8-4.9-10.4-10.7-10.3
			c-5.8,0.1-10.4,4.9-10.3,10.7c0.1,5.7,4.8,10.3,10.5,10.3c5.7,0.1,10.4-4.3,10.5-10C248.9,207.3,248.9,207,248.9,206.8
			L248.9,206.8z"/>
		<path class="st2" d="M290.1,214.3c0,6.4-5.2,10.6-11.6,10.6h-15.1v-36.1h14.1c6.3,0,11.4,4.1,11.4,10.3c0.1,2.7-1.1,5.3-3.1,7.1
			C288.5,207.8,290.2,210.9,290.1,214.3z M271.6,196.5v6.4h5.9c1.8-0.1,3.1-1.6,3-3.4c-0.1-1.6-1.4-2.9-3-3H271.6z M281.9,213.6
			c0.1-1.8-1.3-3.3-3.1-3.4c-0.1,0-0.2,0-0.3,0h-6.9v6.9h6.9c1.8,0.1,3.3-1.3,3.4-3.1C281.9,213.9,281.9,213.7,281.9,213.6
			L281.9,213.6z"/>
	</g>
</g>
</svg>
