<?xml version="1.0" encoding="utf-8"?>
<!-- Generator: Adobe Illustrator 24.2.3, SVG Export Plug-In . SVG Version: 6.00 Build 0)  -->
<svg version="1.1" id="Capa_1" xmlns="http://www.w3.org/2000/svg" xmlns:xlink="http://www.w3.org/1999/xlink" x="0px" y="0px"
	 viewBox="0 0 66.7 66.7" style="enable-background:new 0 0 66.7 66.7;" xml:space="preserve">
<style type="text/css">
	.st0{fill:#1C3560;}
</style>
<path id="Icon_awesome-facebook-square" class="st0" d="M59.5,0H7.1C3.2,0,0,3.2,0,7.1l0,0v52.4c0,3.9,3.2,7.2,7.1,7.2c0,0,0,0,0,0
	h20.4V44h-9.3V33.3h9.3v-8.1c0-9.3,5.5-14.4,14-14.4c2.8,0,5.5,0.3,8.3,0.7v9.1h-4.7c-2.9-0.4-5.6,1.6-6,4.6c0,0,0,0,0,0
	c0,0.4,0,0.8,0,1.2v6.9h10.2L47.7,44h-8.6v22.7h20.4c3.9,0,7.1-3.2,7.1-7.1V7.1C66.7,3.2,63.5,0,59.5,0z"/>
</svg>
