<?xml version="1.0" encoding="utf-8"?>
<!-- Generator: Adobe Illustrator 24.2.3, SVG Export Plug-In . SVG Version: 6.00 Build 0)  -->
<svg version="1.1" id="Capa_1" xmlns="http://www.w3.org/2000/svg" xmlns:xlink="http://www.w3.org/1999/xlink" x="0px" y="0px"
	 viewBox="0 0 53.6 73.6" style="enable-background:new 0 0 53.6 73.6;" xml:space="preserve">
<style type="text/css">
	.st0{fill:#1C3560;}
</style>
<g>
	<polygon class="st0" points="38.2,52.2 53.6,36.8 38.2,21.5 33.5,26.2 44.1,36.8 33.5,47.4 	"/>
	<path class="st0" d="M10.1,13.4h33.5v6.7h6.7V6.7c0-3.7-3-6.7-6.7-6.7H10.1C6.4,0,3.4,3,3.4,6.7v13.4h6.7V13.4z"/>
	<path class="st0" d="M43.5,60.2H10.1v-6.6H3.4v13.3c0,3.7,3,6.7,6.7,6.7h33.5c3.7,0,6.7-3,6.7-6.7V53.6h-6.7L43.5,60.2L43.5,60.2z"
		/>
	<polygon class="st0" points="20.1,47.4 9.5,36.8 20.1,26.2 15.4,21.4 0,36.8 15.4,52.2 	"/>
</g>
</svg>
