<?xml version="1.0"?>
<svg xmlns="http://www.w3.org/2000/svg" id="outline" viewBox="0 0 512 512" width="512" height="512">
<path d="M72.00195,304v55.999a40.045,40.045,0,0,0,39.999,40H144v-16H112.001a24.02667,24.02667,0,0,1-23.999-24V304Z"/>
<path d="M493.31445,418.02051l-72.001-64A7.9999,7.9999,0,0,0,407.999,360v24H368v16h47.999a8.00039,8.00039,0,0,0,8-8V377.81445L475.958,424l-51.959,46.18555V456a8.00039,8.00039,0,0,0-8-8h-304A79.999,79.999,0,0,1,32,368l.001-72.001a40.04561,40.04561,0,0,1,40-39.999H80V240H72.001a56.06457,56.06457,0,0,0-56,55.999L16,368a95.99807,95.99807,0,0,0,95.999,96h296v24a7.99985,7.99985,0,0,0,13.31446,5.97949l72.001-64a7.99957,7.99957,0,0,0,0-11.959Z"/>
<path d="M439.99805,208V152.001a40.045,40.045,0,0,0-39.999-40H368v16h31.999a24.02667,24.02667,0,0,1,23.999,24V208Z"/>
<path d="M400.001,48h-296V24a7.9999,7.9999,0,0,0-13.31446-5.97949l-72.001,64a7.99957,7.99957,0,0,0,0,11.959l72.001,64A7.9999,7.9999,0,0,0,104.001,152V128H144V112H96.001a8.00039,8.00039,0,0,0-8,8v14.18555L36.042,88,88.001,41.81445V56a8.00039,8.00039,0,0,0,8,8h304A79.999,79.999,0,0,1,480,144l-.001,72.001a40.04561,40.04561,0,0,1-40,39.999H432v16h7.999a56.06457,56.06457,0,0,0,56-55.999L496,144a95.99807,95.99807,0,0,0-95.999-96Z"/>
<path d="M128.124,224H104a8.00039,8.00039,0,0,0-8,8v48a8.00039,8.00039,0,0,0,8,8h24.124a2.26465,2.26465,0,0,1,1.13184,4.22559l-20.8916,12.0625a7.99874,7.99874,0,0,0-2.92774,10.92773l24,41.56836a8.00069,8.00069,0,0,0,10.92774,2.92871l20.8916-12.0625a2.26442,2.26442,0,0,1,3.09277,3.09375l-12.06152,20.8916a7.9999,7.9999,0,0,0,2.92871,10.92774l41.56836,24a7.99851,7.99851,0,0,0,10.92773-2.92774l12.06348-20.89258A2.26432,2.26432,0,0,1,224,383.876V408a8.00039,8.00039,0,0,0,8,8h48a8.00039,8.00039,0,0,0,8-8V383.876a2.26465,2.26465,0,0,1,4.22559-1.13184l12.0625,20.8916a7.99805,7.99805,0,0,0,10.92773,2.92774l41.56836-24a7.9999,7.9999,0,0,0,2.92871-10.92774l-12.0625-20.8916a2.26442,2.26442,0,0,1,3.09375-3.09277l20.8916,12.06152a8.00378,8.00378,0,0,0,10.92774-2.92871l24-41.56836a7.99874,7.99874,0,0,0-2.92774-10.92773l-20.89258-12.06348a2.26476,2.26476,0,0,1-1.05371-2.54688L382.13867,288H408a8.00039,8.00039,0,0,0,8-8V232a8.00039,8.00039,0,0,0-8-8H383.876a2.26465,2.26465,0,0,1-1.13184-4.22559l20.8916-12.0625a7.99874,7.99874,0,0,0,2.92774-10.92773l-24-41.56836a8.00178,8.00178,0,0,0-10.92774-2.92871l-20.8916,12.0625a2.26442,2.26442,0,0,1-3.09277-3.09375l12.06152-20.8916a7.9999,7.9999,0,0,0-2.92871-10.92774l-41.56836-24a7.99766,7.99766,0,0,0-10.92773,2.92774l-12.0625,20.8916-.001.001A2.26432,2.26432,0,0,1,288,128.124V104a8.00039,8.00039,0,0,0-8-8H232a8.00039,8.00039,0,0,0-8,8v24.124a2.26465,2.26465,0,0,1-4.22559,1.13184l-12.0625-20.8916a7.997,7.997,0,0,0-10.92773-2.92774l-41.56836,24a7.9999,7.9999,0,0,0-2.92871,10.92774l12.0625,20.8916a2.26442,2.26442,0,0,1-3.09375,3.09277l-20.8916-12.06152a8.00162,8.00162,0,0,0-10.92774,2.92871l-24,41.56836a7.99874,7.99874,0,0,0,2.92774,10.92773l20.89258,12.06348A2.26432,2.26432,0,0,1,128.124,224Zm9.13184-18.08105-13.96387-8.0625,16-27.7129,13.96387,8.06153a18.2641,18.2641,0,0,0,24.95019-24.94922l-8.0625-13.96387,27.7129-16,8.06152,13.96289A18.26421,18.26421,0,0,0,240,128.124V112h32v16.124a18.26388,18.26388,0,0,0,34.08105,9.13184l8.0625-13.96387,27.7129,16-8.06153,13.96387a18.2641,18.2641,0,0,0,24.94922,24.95019l13.96387-8.0625,16,27.7129L374.74512,205.918A18.26421,18.26421,0,0,0,383.876,240H400v32H376a7.99981,7.99981,0,0,0-7.72754,5.92969l-2.03808,7.60644a18.28671,18.28671,0,0,0,8.50976,20.54492l13.96387,8.0625-16,27.7129-13.96387-8.06153A18.2641,18.2641,0,0,0,333.794,358.74414l8.0625,13.96387-27.7129,16L306.082,374.74512A18.26421,18.26421,0,0,0,272,383.876V400H240V383.876a18.26388,18.26388,0,0,0-34.08105-9.13184l-8.0625,13.96387-27.7129-16,8.06153-13.96387A18.2641,18.2641,0,0,0,153.25586,333.794l-13.96387,8.0625-16-27.7129,13.96289-8.06152A18.26421,18.26421,0,0,0,128.124,272H112V240h16.124a18.26388,18.26388,0,0,0,9.13184-34.08105Z"/>
<path d="M256,320a64,64,0,1,0-64-64A64.07207,64.07207,0,0,0,256,320Zm0-112a48,48,0,1,1-48,48A48.05375,48.05375,0,0,1,256,208Z"/></svg>
